<svg width="101" height="113" viewBox="0 0 101 113" fill="none" xmlns="http://www.w3.org/2000/svg">
<path d="M99.2278 84.3993C100.012 83.0402 100.5 81.5088 100.5 80.1336V32.3987C100.5 31.0235 100.013 29.4925 99.2281 28.1333L50.5 56.2663L99.2278 84.3993Z" fill="#00599C"/>
<path d="M54.8301 111.501L96.1699 87.6336C97.3608 86.946 98.4431 85.7587 99.2278 84.3992L50.5 56.2662L1.77222 84.3996C2.55686 85.7587 3.63954 86.9463 4.83007 87.6336L46.1699 111.501C48.5513 112.876 52.4487 112.876 54.8301 111.501Z" fill="#004482"/>
<path d="M99.2281 28.133C98.4431 26.7735 97.3605 25.5863 96.1699 24.8987L54.8301 1.03137C52.4487 -0.343791 48.5513 -0.343791 46.1699 1.03137L4.83007 24.8987C2.44837 26.2735 0.5 29.6487 0.5 32.3987V80.1337C0.5 81.5088 0.987255 83.0402 1.77222 84.3993L50.5 56.2663L99.2281 28.133Z" fill="#659AD2"/>
<path d="M50.5 89.5996C32.1199 89.5996 17.1667 74.6464 17.1667 56.2663C17.1667 37.8863 32.1199 22.933 50.5 22.933C62.3601 22.933 73.4212 29.3153 79.3663 39.5892L64.9405 47.9369C61.965 42.7944 56.4314 39.5997 50.5 39.5997C41.3098 39.5997 33.8333 47.0761 33.8333 56.2663C33.8333 65.4562 41.3098 72.933 50.5 72.933C56.432 72.933 61.9657 69.7382 64.9415 64.5947L79.3673 72.9421C73.4222 83.217 62.3608 89.5996 50.5 89.5996Z" fill="white"/>
<path d="M83.8333 54.4143H80.1294V50.7107H76.4261V54.4143H72.7222V58.1179H76.4261V61.8218H80.1294V58.1179H83.8333V54.4143Z" fill="white"/>
<path d="M97.7222 54.4143H94.0183V50.7107H90.315V54.4143H86.6111V58.1179H90.315V61.8218H94.0183V58.1179H97.7222V54.4143Z" fill="white"/>
</svg>
