<svg width="101" height="114" viewBox="0 0 101 114" fill="none" xmlns="http://www.w3.org/2000/svg">
<path d="M50.4389 113.411L9.60078 102.074L0.5 0H100.5L91.3898 102.058L50.4389 113.411Z" fill="#264DE4"/>
<path d="M83.5905 95.5592L91.3753 8.34583H50.5V104.733L83.5905 95.5592Z" fill="#2965F1"/>
<path d="M21.3632 46.2036L22.485 58.7225H50.5V46.2036H21.3632ZM19.1085 20.8651L20.2464 33.384H50.5V20.8651H19.1085ZM50.5 78.7166L50.4451 78.7311L36.5029 74.9665L35.6115 64.9822H23.0444L24.7982 84.6388L50.4424 91.7573L50.5 91.7416V78.7166Z" fill="#EBEBEB"/>
<path d="M79.5569 46.2036L81.8167 20.8651H50.4569V33.384H68.0971L66.958 46.2036H50.4569V58.7225H65.8726L64.4191 74.9586L50.4565 78.7272V91.7514L76.1211 84.6388L76.3092 82.5236L79.2515 49.5653L79.5569 46.2036Z" fill="white"/>
</svg>
