<svg width="101" height="100" viewBox="0 0 101 100" fill="none" xmlns="http://www.w3.org/2000/svg">
<g clip-path="url(#clip0_2_624)">
<path d="M18.2083 8.06015e-06H82.7917C85.1178 -0.00224053 87.4215 0.466009 89.5709 1.37796C91.7204 2.28991 93.6734 3.62765 95.3182 5.31463C96.9631 7.00162 98.2674 9.00471 99.1565 11.2093C100.046 13.4139 100.502 15.7766 100.5 18.1624V81.8376C100.502 84.2234 100.046 86.5861 99.1565 88.7907C98.2674 90.9953 96.9631 92.9984 95.3182 94.6854C93.6734 96.3723 91.7204 97.7101 89.5709 98.622C87.4215 99.534 85.1178 100.002 82.7917 100H18.2083C15.8822 100.002 13.5785 99.534 11.4291 98.622C9.2796 97.7101 7.32658 96.3723 5.68177 94.6854C4.03696 92.9984 2.73266 90.9953 1.84351 88.7907C0.954359 86.5861 0.497815 84.2234 0.500008 81.8376V18.1624C0.497815 15.7766 0.954359 13.4139 1.84351 11.2093C2.73266 9.00471 4.03696 7.00162 5.68177 5.31463C7.32658 3.62765 9.2796 2.28991 11.4291 1.37796C13.5785 0.466009 15.8822 -0.00224053 18.2083 8.06015e-06Z" fill="#000B1D"/>
<path d="M40.9168 80.5C46.6698 80.5 51.3335 75.8363 51.3335 70.0833V59.6666H40.9168C35.1639 59.6666 30.5002 64.3303 30.5002 70.0833C30.5002 75.8363 35.1639 80.5 40.9168 80.5Z" fill="#0ACF83"/>
<path d="M30.5002 49.25C30.5002 43.4971 35.1639 38.8334 40.9168 38.8334H51.3335V59.6667H40.9168C35.1639 59.6667 30.5002 55.003 30.5002 49.25Z" fill="#A259FF"/>
<path d="M30.5002 28.4167C30.5002 22.6637 35.1639 18 40.9168 18H51.3335V38.8333H40.9168C35.1639 38.8333 30.5002 34.1696 30.5002 28.4167Z" fill="#F24E1E"/>
<path d="M51.3335 18H61.7502C67.5031 18 72.1668 22.6637 72.1668 28.4167C72.1668 34.1696 67.5031 38.8333 61.7502 38.8333H51.3335V18Z" fill="#FF7262"/>
<path d="M72.1668 49.25C72.1668 55.003 67.5031 59.6667 61.7502 59.6667C55.9972 59.6667 51.3335 55.003 51.3335 49.25C51.3335 43.4971 55.9972 38.8334 61.7502 38.8334C67.5031 38.8334 72.1668 43.4971 72.1668 49.25Z" fill="#1ABCFE"/>
</g>
<defs>
<clipPath id="clip0_2_624">
<rect width="100" height="100" fill="white" transform="translate(0.5)"/>
</clipPath>
</defs>
</svg>
