<svg width="101" height="100" viewBox="0 0 101 100" fill="none" xmlns="http://www.w3.org/2000/svg">
<path d="M98.6146 45.546L54.951 1.88601C52.4387 -0.628668 48.3607 -0.628668 45.8452 1.88601L36.779 10.9535L48.2792 22.4542C50.9528 21.5515 54.0172 22.1568 56.1473 24.2874C58.2885 26.4313 58.8894 29.522 57.9641 32.2046L69.0483 43.2892C71.7299 42.3651 74.8238 42.9621 76.9651 45.1073C79.9588 48.1002 79.9588 52.9498 76.9651 55.9435C73.971 58.9382 69.1215 58.9382 66.1258 55.9435C63.8748 53.6907 63.3181 50.3832 64.4582 47.6097L54.1209 37.272L54.12 64.4754C54.8499 64.8367 55.5387 65.319 56.1468 65.9245C59.1396 68.9171 59.1396 73.7659 56.1468 76.7634C53.1532 79.7559 48.3015 79.7559 45.311 76.7634C42.3178 73.7661 42.3178 68.9173 45.311 65.9245C46.0508 65.1861 46.9067 64.6272 47.82 64.2525V36.7963C46.9063 36.4233 46.0513 35.8685 45.3105 35.1242C43.0433 32.8586 42.4972 29.5309 43.66 26.7467L32.323 15.4075L2.38652 45.3443C-0.128841 47.8609 -0.128841 51.9391 2.38652 54.4539L46.0475 98.114C48.5612 100.629 52.6378 100.629 55.155 98.114L98.6141 54.6602C101.129 52.1443 101.129 48.0649 98.6141 45.5497" fill="#F05133"/>
</svg>
