<svg width="101" height="114" viewBox="0 0 101 114" fill="none" xmlns="http://www.w3.org/2000/svg">
<path d="M100.5 0L91.3898 102.058L50.4389 113.411L9.60078 102.074L0.5 0H100.5Z" fill="#E44D26"/>
<path d="M50.5 104.733L83.5905 95.5592L91.3753 8.34583H50.5V104.733Z" fill="#F16529"/>
<path d="M32.79 33.384H50.5V20.8651H19.1085L19.4079 24.2237L22.485 58.7225H50.5V46.2036H33.9342L32.79 33.384ZM35.6115 64.9822H23.0444L24.7982 84.6388L50.4424 91.7573L50.5 91.7416V78.7166L50.4451 78.7311L36.5029 74.9665L35.6115 64.9822Z" fill="#EBEBEB"/>
<path d="M50.4569 58.7225H65.8726L64.4191 74.9586L50.4565 78.7272V91.7514L76.1211 84.6388L76.3092 82.5236L79.2515 49.5653L79.5569 46.2036H50.4569V58.7225ZM50.4569 33.3534V33.384H80.696L80.9469 30.5703L81.5176 24.2237L81.8167 20.8651H50.4569V33.3538V33.3534Z" fill="white"/>
</svg>
