<svg width="101" height="136" viewBox="0 0 101 136" fill="none" xmlns="http://www.w3.org/2000/svg">
<path d="M32.7061 104.858C32.7061 104.858 27.5246 107.872 36.3935 108.891C47.1379 110.117 52.6293 109.941 64.4697 107.7C64.4697 107.7 67.5826 109.652 71.9301 111.343C45.387 122.719 11.8579 110.684 32.7061 104.858Z" fill="#5382A1"/>
<path d="M29.4627 90.0134C29.4627 90.0134 23.6512 94.3152 32.5267 95.2332C44.0042 96.4173 53.0682 96.5142 68.7525 93.494C68.7525 93.494 70.9218 95.6933 74.333 96.8961C42.2408 106.28 6.49597 97.6361 29.4627 90.0134Z" fill="#5382A1"/>
<path d="M56.8057 64.8318C63.3459 72.3617 55.0873 79.1376 55.0873 79.1376C55.0873 79.1376 71.694 70.5647 64.0673 59.8295C56.9442 49.8182 51.4817 44.844 81.0533 27.6935C81.0533 27.6935 34.6357 39.2865 56.8057 64.8318Z" fill="#E76F00"/>
<path d="M91.911 115.838C91.911 115.838 95.7454 118.998 87.6882 121.442C72.3672 126.083 23.9205 127.485 10.4622 121.627C5.62433 119.522 14.6968 116.602 17.5506 115.989C20.5269 115.343 22.2277 115.463 22.2277 115.463C16.8475 111.673 -12.548 122.906 7.2963 126.122C61.4145 134.899 105.949 122.17 91.911 115.838Z" fill="#5382A1"/>
<path d="M35.1978 74.6328C35.1978 74.6328 10.5547 80.4859 26.471 82.6114C33.1914 83.5112 46.5883 83.3076 59.0672 82.262C69.2656 81.4018 79.506 79.5727 79.506 79.5727C79.506 79.5727 75.9099 81.1127 73.3082 82.8892C48.2836 89.4707 -0.0592299 86.4089 13.8581 79.6768C25.6279 73.9874 35.1978 74.6328 35.1978 74.6328Z" fill="#5382A1"/>
<path d="M79.4044 99.3425C104.843 86.1236 93.0812 73.4204 84.8716 75.1318C82.8594 75.5506 81.9622 75.9135 81.9622 75.9135C81.9622 75.9135 82.7092 74.7433 84.136 74.2368C100.377 68.5269 112.868 91.0774 78.8931 100.009C78.8931 100.009 79.2867 99.6572 79.4044 99.3425Z" fill="#5382A1"/>
<path d="M64.0673 0C64.0673 0 78.1556 14.0931 50.7051 35.7642C28.6926 53.1483 45.6856 63.0601 50.696 74.3849C37.8469 62.7919 28.4174 52.5865 34.7435 43.0883C44.0286 29.1458 69.7516 22.386 64.0673 0Z" fill="#E76F00"/>
<path d="M37.6975 135.163C62.1154 136.726 99.6119 134.295 100.5 122.742C100.5 122.742 98.7929 127.122 80.3199 130.6C59.4787 134.522 33.774 134.064 18.5282 131.551C18.5286 131.55 21.6492 134.134 37.6975 135.163Z" fill="#5382A1"/>
</svg>
