<svg width="101" height="100" viewBox="0 0 101 100" fill="none" xmlns="http://www.w3.org/2000/svg">
<g clip-path="url(#clip0_2_620)">
<path d="M18.2083 8.06015e-06H82.7917C85.1178 -0.00224053 87.4215 0.466009 89.5709 1.37796C91.7204 2.28991 93.6734 3.62765 95.3182 5.31463C96.963 7.00162 98.2673 9.00471 99.1565 11.2093C100.046 13.4139 100.502 15.7766 100.5 18.1624V81.8376C100.502 84.2234 100.046 86.5861 99.1565 88.7907C98.2673 90.9953 96.963 92.9984 95.3182 94.6854C93.6734 96.3723 91.7204 97.7101 89.5709 98.622C87.4215 99.534 85.1178 100.002 82.7917 100H18.2083C15.8822 100.002 13.5785 99.534 11.4291 98.622C9.2796 97.7101 7.32658 96.3723 5.68177 94.6854C4.03696 92.9984 2.73266 90.9953 1.84351 88.7907C0.954359 86.5861 0.497815 84.2234 0.500008 81.8376V18.1624C0.497815 15.7766 0.954359 13.4139 1.84351 11.2093C2.73266 9.00471 4.03696 7.00162 5.68177 5.31463C7.32658 3.62765 9.2796 2.28991 11.4291 1.37796C13.5785 0.466009 15.8822 -0.00224053 18.2083 8.06015e-06Z" fill="#F7DF1E"/>
<path d="M67.8444 78.246C69.8587 81.5349 72.4794 83.9524 77.1143 83.9524C81.0079 83.9524 83.4952 82.0063 83.4952 79.3175C83.4952 76.0952 80.9397 74.954 76.654 73.0794L74.3048 72.0714C67.5238 69.1825 63.019 65.5635 63.019 57.9127C63.019 50.8651 68.3889 45.5 76.781 45.5C82.7556 45.5 87.0508 47.5794 90.146 53.0238L82.8286 57.7222C81.2175 54.8333 79.4794 53.6952 76.781 53.6952C74.0286 53.6952 72.2841 55.4413 72.2841 57.7222C72.2841 60.5413 74.0302 61.6825 78.0619 63.4286L80.4111 64.4349C88.3952 67.8587 92.9032 71.3492 92.9032 79.1968C92.9032 87.6571 86.2571 92.2921 77.3317 92.2921C68.6048 92.2921 62.9667 88.1333 60.2079 82.6825L67.8444 78.246ZM34.6492 79.0603C36.1254 81.6794 37.4683 83.8937 40.6968 83.8937C43.7841 83.8937 45.7317 82.6857 45.7317 77.9889V46.0365H55.1286V78.1159C55.1286 87.846 49.4238 92.2746 41.0968 92.2746C33.573 92.2746 29.2159 88.381 27 83.6913L34.6492 79.0603Z" fill="black"/>
</g>
<defs>
<clipPath id="clip0_2_620">
<rect width="100" height="100" fill="white" transform="translate(0.5)"/>
</clipPath>
</defs>
</svg>
