<svg width="101" height="100" viewBox="0 0 101 100" fill="none" xmlns="http://www.w3.org/2000/svg">
<path d="M50.1395 0C24.7533 1.81125e-06 26.3386 11.009 26.3386 11.009L26.3669 22.4142H50.5923V25.8386H16.7446C16.7446 25.8386 0.5 23.9963 0.5 49.6112C0.499998 75.2261 14.6787 74.3178 14.6787 74.3178H23.1406V62.4315C23.1406 62.4315 22.6845 48.2528 37.0929 48.2528C51.5013 48.2528 61.1202 48.2528 61.1202 48.2528C61.1202 48.2528 74.6197 48.471 74.6197 35.2061C74.6197 21.9413 74.6197 13.2731 74.6197 13.2731C74.6197 13.2731 76.6693 0 50.1395 0ZM36.7816 7.6695C39.1918 7.6695 41.1399 9.61757 41.1399 12.0278C41.1399 14.4381 39.1918 16.3861 36.7816 16.3861C34.3713 16.3861 32.4232 14.4381 32.4232 12.0278C32.4232 9.61757 34.3713 7.6695 36.7816 7.6695Z" fill="url(#paint0_linear_2_611)"/>
<path d="M50.8605 99.4794C76.2467 99.4794 74.6614 88.4704 74.6614 88.4704L74.6331 77.0652H50.4077V73.6408H84.2554C84.2554 73.6408 100.5 75.4831 100.5 49.8681C100.5 24.2532 86.3213 25.1616 86.3213 25.1616H77.8594V37.0479C77.8594 37.0479 78.3155 51.2266 63.9071 51.2266C49.4987 51.2266 39.8798 51.2266 39.8798 51.2266C39.8798 51.2266 26.3803 51.0083 26.3803 64.2732C26.3803 77.5381 26.3803 86.2063 26.3803 86.2063C26.3803 86.2063 24.3307 99.4794 50.8605 99.4794ZM64.2184 91.8099C61.8082 91.8099 59.8601 89.8618 59.8601 87.4515C59.8601 85.0413 61.8082 83.0932 64.2184 83.0932C66.6287 83.0932 68.5767 85.0413 68.5767 87.4515C68.5768 89.8618 66.6287 91.8099 64.2184 91.8099Z" fill="url(#paint1_linear_2_611)"/>
<defs>
<linearGradient id="paint0_linear_2_611" x1="10.1102" y1="8.69537" x2="59.5573" y2="58.3078" gradientUnits="userSpaceOnUse">
<stop stop-color="#387EB8"/>
<stop offset="1" stop-color="#366994"/>
</linearGradient>
<linearGradient id="paint1_linear_2_611" x1="40.5279" y1="40.2567" x2="93.6343" y2="91.1353" gradientUnits="userSpaceOnUse">
<stop stop-color="#FFE052"/>
<stop offset="1" stop-color="#FFC331"/>
</linearGradient>
</defs>
</svg>
